<svg id="Capa_1" enable-background="new 0 0 512 512" height="512" viewBox="0 0 512 512" width="512" xmlns="http://www.w3.org/2000/svg"><g><g><path d="m491.54 473.398-23.185-159.257c-.589-4.047-4.472-6.939-8.518-6.354-4.053.586-6.944 4.469-6.354 8.519l23.185 159.257c1.621 11.125-7.285 21.408-18.517 21.408h-303.238c-4.151 0-7.515 3.364-7.515 7.515s3.364 7.515 7.515 7.515h303.237c15.286 0 29.018-10.697 32.731-25.537 1.066-4.261 1.291-8.72.659-13.066z"/><path d="m204.635 252.558v-46.933c0-4.151-3.364-7.515-7.515-7.515h-7.989v-39.941h133.731v39.941h-7.99c-4.151 0-7.515 3.364-7.515 7.515v46.933c0 19.924 16.208 36.133 36.132 36.133s36.133-16.209 36.133-36.133v-46.933c0-4.151-3.364-7.515-7.515-7.515h-7.989v-39.941h54.694c6.641 0 12.37 4.955 13.326 11.527l17.006 116.81c.598 4.105 4.564 7.008 8.658 6.331 3.986-.659 6.798-4.493 6.215-8.496l-17.007-116.811c-2.024-13.905-14.147-24.391-28.199-24.391h-54.694v-35.018c.001-59.618-48.503-108.121-108.121-108.121s-108.122 48.503-108.122 108.121v35.018h-54.694c-14.052 0-26.174 10.486-28.199 24.391l-44.529 305.868c-2.24 15.386 6.71 30.717 21.207 36.328 3.876 1.5 8.026 2.273 12.182 2.273h71.014c4.151 0 7.515-3.364 7.515-7.515s-3.364-7.515-7.515-7.515h-71.014c-11.232 0-20.138-10.283-18.517-21.408l44.529-305.868c.956-6.571 6.685-11.527 13.326-11.527h54.695v39.941h-7.99c-4.151 0-7.515 3.364-7.515 7.515v46.933c0 19.924 16.209 36.133 36.133 36.133 19.924.003 36.133-16.207 36.133-36.13zm159.958-39.419v39.419c0 11.637-9.467 21.104-21.104 21.104-11.636 0-21.103-9.467-21.103-21.104v-39.419zm-201.689-105.018c0-51.331 41.761-93.092 93.092-93.092 51.332 0 93.093 41.761 93.093 93.092v89.988h-11.198v-89.988c0-45.156-36.738-81.894-81.895-81.894-20.643 0-40.373 7.733-55.557 21.773-3.047 2.818-3.233 7.572-.416 10.619 2.818 3.047 7.573 3.234 10.619.416 12.398-11.465 28.505-17.779 45.353-17.779 36.87 0 66.866 29.995 66.866 66.865v35.018h-133.73v-35.018c0-9.433 1.934-18.556 5.746-27.113 1.689-3.791-.015-8.234-3.805-9.923-3.791-1.691-8.234.015-9.923 3.805-4.676 10.495-7.047 21.675-7.047 33.23v89.988h-11.198zm-15.505 144.437v-39.419h42.206v39.419c0 11.637-9.467 21.104-21.103 21.104-11.636-.001-21.103-9.467-21.103-21.104z"/></g></g></svg>